<svg width="180" height="70" viewBox="0 0 180 70" fill="none" xmlns="http://www.w3.org/2000/svg">
<g clip-path="url(#clip0_8549_9153)">
<path fill-rule="evenodd" clip-rule="evenodd" d="M41.0458 26.235C41.6616 25.3331 42.0239 24.2779 42.1869 23.1956C42.9748 17.8834 42.368 14.2397 41.2903 11.7505C39.488 7.64684 34.8964 5.60855 30.5584 6.8171C28.7652 7.32216 27.3614 8.13387 26.5101 8.7201C25.8762 9.15301 25.0882 9.2883 24.3366 9.10792L20.3517 8.07975C19.0747 7.75507 17.8883 8.86441 18.151 10.1541L18.4317 11.5521C18.3593 11.9218 18.3321 12.2646 18.3321 12.5892C18.3321 15.2859 20.6415 16.6929 22.5343 18.154L24.2913 19.7233C25.4143 20.7334 26.0301 22.1584 26.0301 23.6014C26.0301 24.2418 25.9033 24.8911 25.6588 25.5135C25.2694 26.4965 24.6626 27.3714 23.8837 28.0748L21.4566 30.3025C20.9132 30.7986 20.3879 31.3127 19.8808 31.8358C14.9993 36.9135 11.7209 43.371 10.5435 50.3517L10.0817 53.0665C9.85524 54.4283 9.7194 55.7902 9.67411 57.1611V57.134C5.22738 51.2356 5.45379 45.247 4.96474 41.7747C4.87418 41.1163 3.91419 41.0622 3.74212 41.7025C-0.387636 57.3324 10.1179 63.5285 10.1179 63.5285H18.5404C17.517 52.5073 21.5381 45.4274 21.5381 45.4274V45.4184C21.1396 45.3823 20.7683 45.2741 20.4875 45.0847C19.5728 44.4984 19.1562 43.4703 19.0385 42.6315C18.468 38.7353 19.5094 36.1829 20.3245 34.3791C20.5872 33.7929 20.9404 33.2608 21.3479 32.7918C22.9871 30.9609 25.6226 30.1853 28.1131 30.8798C29.4172 31.2405 30.4316 31.8358 31.0474 32.2597C31.5002 32.5753 33.6828 32.4941 33.6828 32.4941C35.0323 32.1514 36.6262 33.1976 36.0104 34.6948C36.0013 34.7309 35.8473 34.9563 35.8473 34.9924C35.8473 35.0285 35.8473 35.0736 35.8564 35.1006C36.273 37.5087 35.304 38.1581 33.7825 39.3396L32.6413 40.2956C31.5727 41.2426 31.781 44.1377 32.6866 46.185C32.6866 46.1759 32.6866 46.194 32.6866 46.185C33.2934 47.5559 34.0813 48.8185 35.0232 49.9729L35.2768 50.2976C38.3107 54.0405 39.008 57.8375 38.9265 56.9446C38.3922 51.1003 39.2254 48.593 41.0095 43.0103C41.6616 40.972 41.9786 38.8616 41.9786 36.7511C41.9786 33.5945 41.2541 30.4468 39.8141 27.5698C40.3303 27.1729 40.7288 26.704 41.0458 26.235Z" fill="#6543A5"/>
<path fill-rule="evenodd" clip-rule="evenodd" d="M37.1221 57.0621C37.0768 56.9178 36.9047 56.9088 36.8685 57.0621C36.6783 57.955 36.8232 59.6776 35.664 61.4182C34.8761 58.6765 32.7478 56.4127 32.7478 56.4127C32.1229 55.8986 32.63 55.7182 32.63 55.7182C33.3274 55.601 33.5719 55.3845 33.8527 55.1501C33.8527 55.1501 35.03 53.9235 34.4504 51.6597C34.3689 51.1456 34.1968 50.7217 33.9161 50.1355C33.0466 48.2776 30.9908 47.2224 28.9984 47.7184C28.1199 47.9439 27.4316 48.3317 27.015 48.6023C26.7886 48.7556 25.9373 48.7556 25.5388 48.7376L24.6151 48.7015C24.606 48.7015 24.606 48.7015 24.5969 48.7015H24.5879C24.5064 48.7105 24.4158 48.7195 24.3343 48.7556C23.9811 48.9089 23.8 49.2877 23.9358 49.6034C23.9449 49.6124 24.0083 49.7206 24.0083 49.7296C23.9449 49.883 23.8905 50.0363 23.8634 50.2076C23.8453 50.3069 23.8271 50.4151 23.8271 50.5143C23.8181 51.326 24.3162 52.3993 25.1584 53.0757C25.7652 53.6439 26.6437 54.4376 26.363 55.1951C25.7652 56.7825 24.9411 58.6675 24.6785 59.876C24.4611 60.8771 24.2256 62.248 24.0536 63.5287H34.9032H35.9538C37.1673 62.9154 37.3938 60.7779 37.3938 60.7779C37.3938 60.7779 37.3847 60.7779 37.3847 60.7869C37.5658 59.8399 37.5658 58.6133 37.1221 57.0621Z" fill="#500000"/>
</g>
<path d="M52.9947 31.5V14H58.6697C60.7197 14 62.4031 14.3583 63.7197 15.075C65.0531 15.7917 66.0364 16.8083 66.6697 18.125C67.3197 19.425 67.6447 20.975 67.6447 22.775C67.6447 24.5583 67.3197 26.1083 66.6697 27.425C66.0364 28.725 65.0531 29.7333 63.7197 30.45C62.4031 31.15 60.7197 31.5 58.6697 31.5H52.9947ZM55.6447 29.25H58.5697C60.1531 29.25 61.4031 28.9917 62.3197 28.475C63.2531 27.9583 63.9197 27.2167 64.3197 26.25C64.7364 25.2833 64.9447 24.125 64.9447 22.775C64.9447 21.425 64.7364 20.2583 64.3197 19.275C63.9197 18.2917 63.2531 17.5417 62.3197 17.025C61.4031 16.4917 60.1531 16.225 58.5697 16.225H55.6447V29.25ZM75.0229 31.8C73.8395 31.8 72.7729 31.5333 71.8229 31C70.8895 30.45 70.1479 29.6917 69.5979 28.725C69.0479 27.7417 68.7729 26.6 68.7729 25.3C68.7729 24 69.0479 22.8667 69.5979 21.9C70.1645 20.9167 70.9229 20.1583 71.8729 19.625C72.8229 19.075 73.8812 18.8 75.0479 18.8C76.2312 18.8 77.2895 19.075 78.2229 19.625C79.1729 20.1583 79.9229 20.9167 80.4729 21.9C81.0395 22.8667 81.3229 24 81.3229 25.3C81.3229 26.6 81.0395 27.7417 80.4729 28.725C79.9229 29.6917 79.1729 30.45 78.2229 31C77.2729 31.5333 76.2062 31.8 75.0229 31.8ZM75.0229 29.525C75.6562 29.525 76.2395 29.3667 76.7729 29.05C77.3229 28.7333 77.7645 28.2667 78.0979 27.65C78.4312 27.0167 78.5979 26.2333 78.5979 25.3C78.5979 24.3667 78.4312 23.5917 78.0979 22.975C77.7812 22.3417 77.3479 21.8667 76.7979 21.55C76.2645 21.2333 75.6812 21.075 75.0479 21.075C74.4145 21.075 73.8229 21.2333 73.2729 21.55C72.7395 21.8667 72.3062 22.3417 71.9729 22.975C71.6395 23.5917 71.4729 24.3667 71.4729 25.3C71.4729 26.2333 71.6395 27.0167 71.9729 27.65C72.3062 28.2667 72.7395 28.7333 73.2729 29.05C73.8062 29.3667 74.3895 29.525 75.0229 29.525ZM87.3545 27.7C86.7045 27.7 86.1045 27.625 85.5545 27.475L84.4795 28.525C84.6628 28.6417 84.8878 28.7417 85.1545 28.825C85.4212 28.9083 85.7962 28.9833 86.2795 29.05C86.7628 29.1167 87.4212 29.1833 88.2545 29.25C89.9045 29.4 91.0962 29.8 91.8295 30.45C92.5628 31.0833 92.9295 31.9333 92.9295 33C92.9295 33.7333 92.7295 34.425 92.3295 35.075C91.9462 35.7417 91.3378 36.275 90.5045 36.675C89.6878 37.0917 88.6378 37.3 87.3545 37.3C85.6212 37.3 84.2128 36.9667 83.1295 36.3C82.0628 35.65 81.5295 34.6583 81.5295 33.325C81.5295 32.8083 81.6628 32.2917 81.9295 31.775C82.2128 31.275 82.6545 30.8 83.2545 30.35C82.9045 30.2 82.5962 30.0417 82.3295 29.875C82.0795 29.6917 81.8545 29.5083 81.6545 29.325V28.725L83.8045 26.525C82.8378 25.6917 82.3545 24.6 82.3545 23.25C82.3545 22.4333 82.5462 21.6917 82.9295 21.025C83.3295 20.3417 83.9045 19.8 84.6545 19.4C85.4045 19 86.3045 18.8 87.3545 18.8C88.0545 18.8 88.7045 18.9 89.3045 19.1H93.9295V20.85L91.7295 20.975C92.1295 21.6583 92.3295 22.4167 92.3295 23.25C92.3295 24.0833 92.1295 24.8333 91.7295 25.5C91.3462 26.1667 90.7795 26.7 90.0295 27.1C89.2962 27.5 88.4045 27.7 87.3545 27.7ZM87.3545 25.625C88.1212 25.625 88.7378 25.425 89.2045 25.025C89.6878 24.6083 89.9295 24.025 89.9295 23.275C89.9295 22.5083 89.6878 21.925 89.2045 21.525C88.7378 21.125 88.1212 20.925 87.3545 20.925C86.5712 20.925 85.9378 21.125 85.4545 21.525C84.9878 21.925 84.7545 22.5083 84.7545 23.275C84.7545 24.025 84.9878 24.6083 85.4545 25.025C85.9378 25.425 86.5712 25.625 87.3545 25.625ZM84.0295 33.075C84.0295 33.7917 84.3462 34.325 84.9795 34.675C85.6128 35.0417 86.4045 35.225 87.3545 35.225C88.2712 35.225 89.0128 35.025 89.5795 34.625C90.1462 34.2417 90.4295 33.725 90.4295 33.075C90.4295 32.5917 90.2378 32.175 89.8545 31.825C89.4712 31.4917 88.7462 31.2833 87.6795 31.2C86.8795 31.15 86.1712 31.075 85.5545 30.975C84.9712 31.2917 84.5712 31.6333 84.3545 32C84.1378 32.3667 84.0295 32.725 84.0295 33.075ZM99.067 31.5L105.517 14H108.417L114.817 31.5H112.017L110.517 27.225H103.367L101.867 31.5H99.067ZM104.117 25.125H109.767L106.942 17.15L104.117 25.125ZM120.982 27.7C120.332 27.7 119.732 27.625 119.182 27.475L118.107 28.525C118.291 28.6417 118.516 28.7417 118.782 28.825C119.049 28.9083 119.424 28.9833 119.907 29.05C120.391 29.1167 121.049 29.1833 121.882 29.25C123.532 29.4 124.724 29.8 125.457 30.45C126.191 31.0833 126.557 31.9333 126.557 33C126.557 33.7333 126.357 34.425 125.957 35.075C125.574 35.7417 124.966 36.275 124.132 36.675C123.316 37.0917 122.266 37.3 120.982 37.3C119.249 37.3 117.841 36.9667 116.757 36.3C115.691 35.65 115.157 34.6583 115.157 33.325C115.157 32.8083 115.291 32.2917 115.557 31.775C115.841 31.275 116.282 30.8 116.882 30.35C116.532 30.2 116.224 30.0417 115.957 29.875C115.707 29.6917 115.482 29.5083 115.282 29.325V28.725L117.432 26.525C116.466 25.6917 115.982 24.6 115.982 23.25C115.982 22.4333 116.174 21.6917 116.557 21.025C116.957 20.3417 117.532 19.8 118.282 19.4C119.032 19 119.932 18.8 120.982 18.8C121.682 18.8 122.332 18.9 122.932 19.1H127.557V20.85L125.357 20.975C125.757 21.6583 125.957 22.4167 125.957 23.25C125.957 24.0833 125.757 24.8333 125.357 25.5C124.974 26.1667 124.407 26.7 123.657 27.1C122.924 27.5 122.032 27.7 120.982 27.7ZM120.982 25.625C121.749 25.625 122.366 25.425 122.832 25.025C123.316 24.6083 123.557 24.025 123.557 23.275C123.557 22.5083 123.316 21.925 122.832 21.525C122.366 21.125 121.749 20.925 120.982 20.925C120.199 20.925 119.566 21.125 119.082 21.525C118.616 21.925 118.382 22.5083 118.382 23.275C118.382 24.025 118.616 24.6083 119.082 25.025C119.566 25.425 120.199 25.625 120.982 25.625ZM117.657 33.075C117.657 33.7917 117.974 34.325 118.607 34.675C119.241 35.0417 120.032 35.225 120.982 35.225C121.899 35.225 122.641 35.025 123.207 34.625C123.774 34.2417 124.057 33.725 124.057 33.075C124.057 32.5917 123.866 32.175 123.482 31.825C123.099 31.4917 122.374 31.2833 121.307 31.2C120.507 31.15 119.799 31.075 119.182 30.975C118.599 31.2917 118.199 31.6333 117.982 32C117.766 32.3667 117.657 32.725 117.657 33.075ZM130.171 16.75C129.671 16.75 129.254 16.6 128.921 16.3C128.604 15.9833 128.446 15.5917 128.446 15.125C128.446 14.6583 128.604 14.275 128.921 13.975C129.254 13.6583 129.671 13.5 130.171 13.5C130.671 13.5 131.079 13.6583 131.396 13.975C131.729 14.275 131.896 14.6583 131.896 15.125C131.896 15.5917 131.729 15.9833 131.396 16.3C131.079 16.6 130.671 16.75 130.171 16.75ZM128.846 31.5V19.1H131.496V31.5H128.846ZM133.744 31.5V19.1H136.094L136.294 21.275C136.678 20.5083 137.236 19.9083 137.969 19.475C138.719 19.025 139.578 18.8 140.544 18.8C142.044 18.8 143.219 19.2667 144.069 20.2C144.936 21.1333 145.369 22.525 145.369 24.375V31.5H142.744V24.65C142.744 22.25 141.761 21.05 139.794 21.05C138.811 21.05 137.994 21.4 137.344 22.1C136.711 22.8 136.394 23.8 136.394 25.1V31.5H133.744ZM152.315 27.7C151.665 27.7 151.065 27.625 150.515 27.475L149.44 28.525C149.624 28.6417 149.849 28.7417 150.115 28.825C150.382 28.9083 150.757 28.9833 151.24 29.05C151.724 29.1167 152.382 29.1833 153.215 29.25C154.865 29.4 156.057 29.8 156.79 30.45C157.524 31.0833 157.89 31.9333 157.89 33C157.89 33.7333 157.69 34.425 157.29 35.075C156.907 35.7417 156.299 36.275 155.465 36.675C154.649 37.0917 153.599 37.3 152.315 37.3C150.582 37.3 149.174 36.9667 148.09 36.3C147.024 35.65 146.49 34.6583 146.49 33.325C146.49 32.8083 146.624 32.2917 146.89 31.775C147.174 31.275 147.615 30.8 148.215 30.35C147.865 30.2 147.557 30.0417 147.29 29.875C147.04 29.6917 146.815 29.5083 146.615 29.325V28.725L148.765 26.525C147.799 25.6917 147.315 24.6 147.315 23.25C147.315 22.4333 147.507 21.6917 147.89 21.025C148.29 20.3417 148.865 19.8 149.615 19.4C150.365 19 151.265 18.8 152.315 18.8C153.015 18.8 153.665 18.9 154.265 19.1H158.89V20.85L156.69 20.975C157.09 21.6583 157.29 22.4167 157.29 23.25C157.29 24.0833 157.09 24.8333 156.69 25.5C156.307 26.1667 155.74 26.7 154.99 27.1C154.257 27.5 153.365 27.7 152.315 27.7ZM152.315 25.625C153.082 25.625 153.699 25.425 154.165 25.025C154.649 24.6083 154.89 24.025 154.89 23.275C154.89 22.5083 154.649 21.925 154.165 21.525C153.699 21.125 153.082 20.925 152.315 20.925C151.532 20.925 150.899 21.125 150.415 21.525C149.949 21.925 149.715 22.5083 149.715 23.275C149.715 24.025 149.949 24.6083 150.415 25.025C150.899 25.425 151.532 25.625 152.315 25.625ZM148.99 33.075C148.99 33.7917 149.307 34.325 149.94 34.675C150.574 35.0417 151.365 35.225 152.315 35.225C153.232 35.225 153.974 35.025 154.54 34.625C155.107 34.2417 155.39 33.725 155.39 33.075C155.39 32.5917 155.199 32.175 154.815 31.825C154.432 31.4917 153.707 31.2833 152.64 31.2C151.84 31.15 151.132 31.075 150.515 30.975C149.932 31.2917 149.532 31.6333 149.315 32C149.099 32.3667 148.99 32.725 148.99 33.075ZM52.9947 57.5V40H59.1197C60.4864 40 61.6197 40.2333 62.5197 40.7C63.4197 41.15 64.0864 41.775 64.5197 42.575C64.9697 43.3583 65.1947 44.25 65.1947 45.25C65.1947 46.2 64.9781 47.075 64.5447 47.875C64.1281 48.6583 63.4697 49.2833 62.5697 49.75C61.6697 50.2167 60.5197 50.45 59.1197 50.45H55.6447V57.5H52.9947ZM55.6447 48.275H58.9947C60.2447 48.275 61.1364 48.0083 61.6697 47.475C62.2197 46.925 62.4947 46.1833 62.4947 45.25C62.4947 44.2833 62.2197 43.5333 61.6697 43C61.1364 42.45 60.2447 42.175 58.9947 42.175H55.6447V48.275ZM66.4641 57.5V45.1H68.8391L69.0641 47.45C69.4974 46.6333 70.0974 45.9917 70.8641 45.525C71.6474 45.0417 72.5891 44.8 73.6891 44.8V47.575H72.9641C72.2307 47.575 71.5724 47.7 70.9891 47.95C70.4224 48.1833 69.9641 48.5917 69.6141 49.175C69.2807 49.7417 69.1141 50.5333 69.1141 51.55V57.5H66.4641ZM80.1693 57.8C78.986 57.8 77.9193 57.5333 76.9693 57C76.036 56.45 75.2943 55.6917 74.7443 54.725C74.1943 53.7417 73.9193 52.6 73.9193 51.3C73.9193 50 74.1943 48.8667 74.7443 47.9C75.311 46.9167 76.0693 46.1583 77.0193 45.625C77.9693 45.075 79.0277 44.8 80.1943 44.8C81.3777 44.8 82.436 45.075 83.3693 45.625C84.3193 46.1583 85.0693 46.9167 85.6193 47.9C86.186 48.8667 86.4693 50 86.4693 51.3C86.4693 52.6 86.186 53.7417 85.6193 54.725C85.0693 55.6917 84.3193 56.45 83.3693 57C82.4193 57.5333 81.3527 57.8 80.1693 57.8ZM80.1693 55.525C80.8027 55.525 81.386 55.3667 81.9193 55.05C82.4693 54.7333 82.911 54.2667 83.2443 53.65C83.5777 53.0167 83.7443 52.2333 83.7443 51.3C83.7443 50.3667 83.5777 49.5917 83.2443 48.975C82.9277 48.3417 82.4943 47.8667 81.9443 47.55C81.411 47.2333 80.8277 47.075 80.1943 47.075C79.561 47.075 78.9693 47.2333 78.4193 47.55C77.886 47.8667 77.4527 48.3417 77.1193 48.975C76.786 49.5917 76.6193 50.3667 76.6193 51.3C76.6193 52.2333 76.786 53.0167 77.1193 53.65C77.4527 54.2667 77.886 54.7333 78.4193 55.05C78.9527 55.3667 79.536 55.525 80.1693 55.525ZM89.6602 42.75C89.1602 42.75 88.7435 42.6 88.4102 42.3C88.0935 41.9833 87.9352 41.5917 87.9352 41.125C87.9352 40.6583 88.0935 40.275 88.4102 39.975C88.7435 39.6583 89.1602 39.5 89.6602 39.5C90.1602 39.5 90.5685 39.6583 90.8852 39.975C91.2185 40.275 91.3852 40.6583 91.3852 41.125C91.3852 41.5917 91.2185 41.9833 90.8852 42.3C90.5685 42.6 90.1602 42.75 89.6602 42.75ZM85.7102 63V60.75H86.6852C87.2685 60.75 87.6852 60.625 87.9352 60.375C88.1852 60.1417 88.3102 59.7417 88.3102 59.175V45.1H90.9602V59.2C90.9602 60.55 90.6185 61.5167 89.9352 62.1C89.2518 62.7 88.3018 63 87.0852 63H85.7102ZM99.0072 57.8C97.7906 57.8 96.7072 57.5333 95.7572 57C94.8239 56.45 94.0906 55.6917 93.5572 54.725C93.0239 53.7583 92.7572 52.6333 92.7572 51.35C92.7572 50.05 93.0156 48.9083 93.5322 47.925C94.0656 46.9417 94.7989 46.175 95.7322 45.625C96.6822 45.075 97.7822 44.8 99.0322 44.8C100.249 44.8 101.307 45.075 102.207 45.625C103.107 46.1583 103.807 46.875 104.307 47.775C104.807 48.675 105.057 49.6667 105.057 50.75C105.057 50.9167 105.049 51.1 105.032 51.3C105.032 51.4833 105.024 51.6917 105.007 51.925H95.3572C95.4406 53.125 95.8322 54.0417 96.5322 54.675C97.2489 55.2917 98.0739 55.6 99.0072 55.6C99.7572 55.6 100.382 55.4333 100.882 55.1C101.399 54.75 101.782 54.2833 102.032 53.7H104.682C104.349 54.8667 103.682 55.8417 102.682 56.625C101.699 57.4083 100.474 57.8 99.0072 57.8ZM99.0072 46.975C98.1239 46.975 97.3406 47.2417 96.6572 47.775C95.9739 48.2917 95.5572 49.075 95.4072 50.125H102.407C102.357 49.1583 102.016 48.3917 101.382 47.825C100.749 47.2583 99.9572 46.975 99.0072 46.975ZM112.432 57.8C111.215 57.8 110.124 57.525 109.157 56.975C108.207 56.425 107.457 55.6667 106.907 54.7C106.374 53.7167 106.107 52.5833 106.107 51.3C106.107 50.0167 106.374 48.8917 106.907 47.925C107.457 46.9417 108.207 46.175 109.157 45.625C110.124 45.075 111.215 44.8 112.432 44.8C113.965 44.8 115.249 45.2 116.282 46C117.332 46.8 118.007 47.8833 118.307 49.25H115.532C115.365 48.5667 114.999 48.0333 114.432 47.65C113.865 47.2667 113.199 47.075 112.432 47.075C111.782 47.075 111.182 47.2417 110.632 47.575C110.082 47.8917 109.64 48.3667 109.307 49C108.974 49.6167 108.807 50.3833 108.807 51.3C108.807 52.2167 108.974 52.9917 109.307 53.625C109.64 54.2417 110.082 54.7167 110.632 55.05C111.182 55.3833 111.782 55.55 112.432 55.55C113.199 55.55 113.865 55.3583 114.432 54.975C114.999 54.5917 115.365 54.05 115.532 53.35H118.307C118.024 54.6833 117.357 55.7583 116.307 56.575C115.257 57.3917 113.965 57.8 112.432 57.8ZM124.887 57.5C123.67 57.5 122.703 57.2083 121.987 56.625C121.27 56.025 120.912 54.9667 120.912 53.45V47.325H118.787V45.1H120.912L121.237 41.95H123.562V45.1H127.062V47.325H123.562V53.45C123.562 54.1333 123.703 54.6083 123.987 54.875C124.287 55.125 124.795 55.25 125.512 55.25H126.937V57.5H124.887Z" fill="black"/>
<defs>
<clipPath id="clip0_8549_9153">
<rect width="45.3253" height="57.0568" fill="white" transform="translate(0 6.47168)"/>
</clipPath>
</defs>
</svg>
