<svg width="12" height="13" viewBox="0 0 12 13" fill="none" xmlns="http://www.w3.org/2000/svg">
<path fill-rule="evenodd" clip-rule="evenodd" d="M2.05221 12.3508H9.74832C10.8166 12.3508 11.6807 11.4867 11.6807 10.4185V2.72238C11.6807 1.65888 10.8118 0.790039 9.74832 0.790039H2.05221C0.988713 0.790039 0.119873 1.65888 0.119873 2.72238V10.4185C0.119873 11.482 0.988713 12.3508 2.05221 12.3508ZM9.44845 3.50796C9.76311 3.50796 10.0182 3.25288 10.0182 2.93822C10.0182 2.62355 9.76311 2.36847 9.44845 2.36847C9.13379 2.36847 8.87871 2.62355 8.87871 2.93822C8.87871 3.25288 9.13379 3.50796 9.44845 3.50796ZM5.90261 9.54009C5.10973 9.54009 4.36433 9.23149 3.8041 8.67125C3.24386 8.11102 2.93526 7.36562 2.93526 6.57275C2.93526 5.77987 3.24386 5.03447 3.8041 4.47424C4.36433 3.914 5.10973 3.6054 5.90261 3.6054C6.69548 3.6054 7.44088 3.914 8.00111 4.47424C8.56135 5.03447 8.86995 5.77987 8.86995 6.57275C8.86995 7.36562 8.56135 8.11102 8.00111 8.67125C7.43613 9.23149 6.69548 9.54009 5.90261 9.54009ZM5.90261 4.23685C4.61596 4.23685 3.56671 5.28136 3.56671 6.57275C3.56671 7.85939 4.61122 8.90864 5.90261 8.90864C7.18925 8.90864 8.2385 7.86414 8.2385 6.57275C8.23375 5.2861 7.18925 4.23685 5.90261 4.23685Z" fill="#D1BD8F"/>
</svg>
