<svg width="14" height="15" viewBox="0 0 14 15" fill="none" xmlns="http://www.w3.org/2000/svg">
<path fill-rule="evenodd" clip-rule="evenodd" d="M3.6735 2.46309C3.6735 3.36687 2.94084 4.09953 2.03707 4.09953C1.13329 4.09953 0.400635 3.36687 0.400635 2.46309C0.400635 1.55932 1.13329 0.82666 2.03707 0.82666C2.94084 0.82666 3.6735 1.55932 3.6735 2.46309ZM11.0701 5.06712C10.9662 5.05413 10.8558 5.04764 10.7454 5.04115C9.16738 4.97621 8.27773 5.91131 7.96603 6.31393C7.88161 6.42432 7.84265 6.48926 7.84265 6.48926V5.28791H5.14773V14.2753H7.84265H7.96603V11.5349V10.0543C7.96603 9.98461 7.96544 9.91437 7.96484 9.84382C7.96022 9.29675 7.95544 8.73075 8.22578 8.23609C8.48553 7.76854 8.95308 7.53476 9.47908 7.53476C11.0376 7.53476 11.0701 8.94391 11.0701 9.07379V9.08677V14.3143H13.8884V8.45038C13.8884 6.4438 12.8688 5.26193 11.0701 5.06712ZM3.44617 5.26186H0.627865V14.2493H3.44617V5.26186Z" fill="#D1BD8F"/>
</svg>
