<svg width="319" height="319" viewBox="0 0 319 319" fill="none" xmlns="http://www.w3.org/2000/svg">
<path d="M297.345 99.6339C297.323 99.6379 297.306 99.6525 297.292 99.6683L297.265 99.6925C297.265 99.6925 297.244 99.7111 297.235 99.7207C297.218 99.7404 297.196 99.7562 297.172 99.7669L297.075 99.8328C296.845 100.009 296.603 100.164 296.352 100.303C295.648 100.684 294.888 100.929 294.111 101.026C293.062 101.18 292.003 101.052 291.033 100.658C289.993 100.226 289.09 99.5042 288.419 98.5687C287.967 97.9545 287.604 97.2743 287.335 96.5468C286.988 95.615 286.768 94.6324 286.679 93.6267C286.576 92.4505 286.612 91.2628 286.788 90.0858C286.929 89.112 286.989 88.1286 286.966 87.1499C286.935 86.1689 286.857 85.1902 286.729 84.2199C286.629 83.3583 286.507 82.5006 286.433 81.6339C286.35 80.8179 286.348 79.9944 286.424 79.1721C286.541 77.9866 286.953 76.8432 287.621 75.8588C288.063 75.2084 288.584 74.6198 289.169 74.1083C289.681 73.6548 290.266 73.3003 290.891 73.0674C291.726 72.7695 292.602 72.6417 293.471 72.6928C294.167 72.7226 294.861 72.807 295.542 72.9438C296.451 73.1142 297.347 73.337 298.247 73.5507C299.263 73.793 300.283 74.0241 301.322 74.1736C302.144 74.2945 302.977 74.3484 303.812 74.3326C304.703 74.3054 305.594 74.3745 306.467 74.5427C307.62 74.7585 308.724 75.1735 309.734 75.7738C310.368 76.1538 310.95 76.6216 311.462 77.1649C311.9 77.6284 312.276 78.1526 312.575 78.7265C313.363 80.2045 313.568 81.9649 313.146 83.6441C312.911 84.6344 312.427 85.5488 311.744 86.2878C311.621 86.4218 311.495 86.5525 311.371 86.6837C311.329 86.7378 311.282 86.7857 311.229 86.8274L311.142 86.9079C311.082 86.9671 311.013 87.0138 310.952 87.0702C310.653 87.3411 310.333 87.5845 309.995 87.7992C309.167 88.3284 308.315 88.8126 307.441 89.25C306.622 89.6801 305.803 90.1079 305.016 90.6044C304.615 90.8507 304.23 91.1279 303.866 91.4321C303.411 91.8164 302.984 92.2343 302.587 92.6843C302.021 93.3433 301.497 94.0371 301.019 94.7675C300.421 95.664 299.871 96.5926 299.258 97.4778C298.906 98.01 298.51 98.5062 298.071 98.9596L297.932 99.0869C297.913 99.0988 297.899 99.1168 297.893 99.1393L297.346 99.6367L297.345 99.6339ZM282.428 92.0434C281.995 92.4406 281.508 92.7679 280.986 93.016C280.03 93.4704 278.999 93.702 277.964 93.6865C277.196 93.6837 276.439 93.5509 275.72 93.2931C274.836 92.9916 274.036 92.4784 273.386 91.79L273.312 91.7005L273.046 91.3765L272.974 91.2899C272.724 90.9609 272.524 90.594 272.375 90.2024C272.089 89.4749 272.011 88.6701 272.153 87.8798C272.327 86.9459 272.776 86.0799 273.437 85.4124C273.881 84.9483 274.396 84.5657 274.957 84.2771C275.896 83.7917 276.921 83.532 277.951 83.5149C278.437 83.501 278.921 83.5423 279.394 83.6359C280.724 83.86 281.937 84.526 282.859 85.5372C283.275 85.9995 283.596 86.5481 283.803 87.1507C284.049 87.8456 284.105 88.6037 283.967 89.3468C283.784 90.3049 283.311 91.1861 282.623 91.8587C282.563 91.92 282.497 91.982 282.426 92.0406L282.428 92.0434ZM305.734 70.5668C305.565 70.7223 305.386 70.8682 305.198 70.9995C304.435 71.5579 303.532 71.8524 302.619 71.8402C301.889 71.8255 301.182 71.6072 300.572 71.2069C300.129 70.9208 299.733 70.5603 299.405 70.1379C299.228 69.9174 299.069 69.6822 298.929 69.4352C298.638 68.9165 298.419 68.3567 298.279 67.7669C297.993 66.5931 297.998 65.3515 298.288 64.1563C298.484 63.3175 298.829 62.518 299.302 61.8034C299.719 61.1558 300.258 60.601 300.885 60.1778C301.617 59.6741 302.471 59.41 303.331 59.4228C304.039 59.4363 304.726 59.6395 305.323 60.0173C305.624 60.1983 305.903 60.4193 306.148 60.6746C306.189 60.6808 306.197 60.7094 306.231 60.7449C306.264 60.7803 306.282 60.831 306.339 60.8388L306.655 61.219C306.657 61.2607 306.691 61.2792 306.709 61.3034C306.727 61.3203 306.745 61.3394 306.757 61.3619C306.784 61.4221 306.832 61.471 306.856 61.5256C306.923 61.6449 306.997 61.7658 307.063 61.8823C307.443 62.5765 307.697 63.3435 307.809 64.1454C307.938 65.0025 307.919 65.8834 307.752 66.7441C307.577 67.6875 307.218 68.5918 306.7 69.3959C306.426 69.8256 306.101 70.2198 305.733 70.564L305.734 70.5668ZM294.01 69.6327C293.502 70.1042 292.9 70.4469 292.253 70.6354C291.592 70.8273 290.904 70.865 290.238 70.7468C289.213 70.5624 288.259 70.105 287.465 69.4195C287.082 69.0962 286.731 68.7329 286.421 68.3324C286.174 68.0185 285.949 67.686 285.745 67.3378C285.389 66.7246 285.109 66.0618 284.913 65.368C284.589 64.2589 284.513 63.0753 284.688 61.9101C284.799 61.1479 285.051 60.4132 285.43 59.7437C285.86 58.9717 286.483 58.3352 287.229 57.9074C287.961 57.4903 288.782 57.2949 289.597 57.3438C290.333 57.3793 291.047 57.5706 291.7 57.905C292.564 58.3484 293.328 58.9754 293.947 59.7448C294.068 59.8877 294.179 60.0379 294.282 60.1932C294.604 60.6572 294.881 61.1529 295.109 61.679C295.535 62.6411 295.773 63.6889 295.816 64.7622C295.859 65.6953 295.716 66.6326 295.396 67.5182C295.146 68.2197 294.758 68.8605 294.256 69.3984C294.176 69.4812 294.095 69.5612 294.013 69.6384L294.01 69.6327ZM285.113 77.8285C285.058 77.8865 285 77.9411 284.942 77.9958C284.55 78.3529 284.105 78.6409 283.628 78.8501C282.86 79.1828 282.042 79.35 281.222 79.336C280.326 79.3283 279.445 79.1506 278.618 78.8135C277.446 78.354 276.395 77.6198 275.547 76.6642C275.081 76.1451 274.691 75.5567 274.387 74.9164C274.025 74.1715 273.817 73.3465 273.781 72.4995C273.71 71.245 274.144 69.9985 274.977 69.063C274.984 69.0478 274.994 69.0337 275.008 69.0252L275.09 68.9503C275.108 68.9407 275.122 68.9227 275.128 68.9024L275.449 68.6061C275.469 68.6016 275.488 68.5898 275.499 68.5734L275.581 68.4985C275.591 68.4867 275.605 68.4782 275.62 68.4726C276.149 68.0793 276.742 67.7896 277.366 67.6242C278.189 67.4001 279.041 67.3431 279.871 67.459C280.837 67.5865 281.764 67.8993 282.611 68.3793C283.399 68.8194 284.112 69.394 284.717 70.078C284.974 70.3704 285.21 70.6838 285.418 71.014C285.73 71.4972 285.981 72.0221 286.167 72.5781C286.443 73.3799 286.533 74.2438 286.43 75.1022C286.303 76.1306 285.837 77.0957 285.11 77.8206L285.108 77.8274L285.113 77.8285Z" fill="#7048C6"/>
<g filter="url(#filter0_ddddd_6674_11988)">
<path d="M53.556 170.23V145.03H62.376C64.344 145.03 65.976 145.366 67.272 146.038C68.568 146.686 69.528 147.586 70.152 148.738C70.8 149.866 71.124 151.15 71.124 152.59C71.124 153.958 70.812 155.218 70.188 156.37C69.588 157.498 68.64 158.398 67.344 159.07C66.048 159.742 64.392 160.078 62.376 160.078H57.372V170.23H53.556ZM57.372 156.946H62.196C63.996 156.946 65.28 156.562 66.048 155.794C66.84 155.002 67.236 153.934 67.236 152.59C67.236 151.198 66.84 150.118 66.048 149.35C65.28 148.558 63.996 148.162 62.196 148.162H57.372V156.946ZM73.6718 170.23V144.31H77.4878V170.23H73.6718ZM87.2883 170.662C85.7763 170.662 84.5283 170.41 83.5443 169.906C82.5603 169.402 81.8283 168.742 81.3483 167.926C80.8683 167.086 80.6283 166.174 80.6283 165.19C80.6283 163.462 81.3003 162.094 82.6443 161.086C83.9883 160.078 85.9083 159.574 88.4043 159.574H93.0843V159.25C93.0843 157.858 92.7003 156.814 91.9323 156.118C91.1883 155.422 90.2163 155.074 89.0163 155.074C87.9603 155.074 87.0363 155.338 86.2443 155.866C85.4763 156.37 85.0083 157.126 84.8403 158.134H81.0243C81.1443 156.838 81.5763 155.734 82.3203 154.822C83.0883 153.886 84.0483 153.178 85.2003 152.698C86.3763 152.194 87.6603 151.942 89.0523 151.942C91.5483 151.942 93.4803 152.602 94.8483 153.922C96.2163 155.218 96.9003 156.994 96.9003 159.25V170.23H93.5883L93.2643 167.17C92.7603 168.154 92.0283 168.982 91.0683 169.654C90.1083 170.326 88.8483 170.662 87.2883 170.662ZM88.0443 167.566C89.0763 167.566 89.9403 167.326 90.6363 166.846C91.3563 166.342 91.9083 165.682 92.2923 164.866C92.7003 164.05 92.9523 163.15 93.0483 162.166H88.8003C87.2883 162.166 86.2083 162.43 85.5603 162.958C84.9363 163.486 84.6243 164.146 84.6243 164.938C84.6243 165.754 84.9243 166.402 85.5243 166.882C86.1483 167.338 86.9883 167.566 88.0443 167.566ZM101.795 178.15L106.079 168.754H105.035L97.9792 152.374H102.119L107.591 165.586L113.315 152.374H117.347L105.827 178.15H101.795ZM134.991 170.23L125.667 145.03H129.735L137.295 166.27L144.891 145.03H148.923L139.599 170.23H134.991ZM153.084 148.99C152.364 148.99 151.764 148.774 151.284 148.342C150.828 147.886 150.6 147.322 150.6 146.65C150.6 145.978 150.828 145.426 151.284 144.994C151.764 144.538 152.364 144.31 153.084 144.31C153.804 144.31 154.392 144.538 154.848 144.994C155.328 145.426 155.568 145.978 155.568 146.65C155.568 147.322 155.328 147.886 154.848 148.342C154.392 148.774 153.804 148.99 153.084 148.99ZM151.176 170.23V152.374H154.992V170.23H151.176ZM167.086 170.662C165.358 170.662 163.834 170.254 162.514 169.438C161.194 168.622 160.162 167.506 159.418 166.09C158.674 164.674 158.302 163.066 158.302 161.266C158.302 159.466 158.674 157.87 159.418 156.478C160.162 155.062 161.194 153.958 162.514 153.166C163.858 152.35 165.394 151.942 167.122 151.942C168.538 151.942 169.774 152.218 170.83 152.77C171.91 153.322 172.75 154.102 173.35 155.11V144.31H177.166V170.23H173.746L173.35 167.458C172.774 168.298 171.982 169.042 170.974 169.69C169.966 170.338 168.67 170.662 167.086 170.662ZM167.77 167.35C169.402 167.35 170.734 166.786 171.766 165.658C172.822 164.53 173.35 163.078 173.35 161.302C173.35 159.502 172.822 158.05 171.766 156.946C170.734 155.818 169.402 155.254 167.77 155.254C166.138 155.254 164.794 155.818 163.738 156.946C162.682 158.05 162.154 159.502 162.154 161.302C162.154 162.478 162.394 163.522 162.874 164.434C163.354 165.346 164.014 166.066 164.854 166.594C165.718 167.098 166.69 167.35 167.77 167.35ZM189.249 170.662C187.497 170.662 185.937 170.278 184.569 169.51C183.225 168.718 182.169 167.626 181.401 166.234C180.633 164.842 180.249 163.222 180.249 161.374C180.249 159.502 180.621 157.858 181.365 156.442C182.133 155.026 183.189 153.922 184.533 153.13C185.901 152.338 187.485 151.942 189.285 151.942C191.037 151.942 192.561 152.338 193.857 153.13C195.153 153.898 196.161 154.93 196.881 156.226C197.601 157.522 197.961 158.95 197.961 160.51C197.961 160.75 197.949 161.014 197.925 161.302C197.925 161.566 197.913 161.866 197.889 162.202H183.993C184.113 163.93 184.677 165.25 185.685 166.162C186.717 167.05 187.905 167.494 189.249 167.494C190.329 167.494 191.229 167.254 191.949 166.774C192.693 166.27 193.245 165.598 193.605 164.758H197.421C196.941 166.438 195.981 167.842 194.541 168.97C193.125 170.098 191.361 170.662 189.249 170.662ZM189.249 155.074C187.977 155.074 186.849 155.458 185.865 156.226C184.881 156.97 184.281 158.098 184.065 159.61H194.145C194.073 158.218 193.581 157.114 192.669 156.298C191.757 155.482 190.617 155.074 189.249 155.074ZM209.192 170.662C207.488 170.662 205.952 170.278 204.584 169.51C203.24 168.718 202.172 167.626 201.38 166.234C200.588 164.818 200.192 163.174 200.192 161.302C200.192 159.43 200.588 157.798 201.38 156.406C202.196 154.99 203.288 153.898 204.656 153.13C206.024 152.338 207.548 151.942 209.228 151.942C210.932 151.942 212.456 152.338 213.8 153.13C215.168 153.898 216.248 154.99 217.04 156.406C217.856 157.798 218.264 159.43 218.264 161.302C218.264 163.174 217.856 164.818 217.04 166.234C216.248 167.626 215.168 168.718 213.8 169.51C212.432 170.278 210.896 170.662 209.192 170.662ZM209.192 167.386C210.104 167.386 210.944 167.158 211.712 166.702C212.504 166.246 213.14 165.574 213.62 164.686C214.1 163.774 214.34 162.646 214.34 161.302C214.34 159.958 214.1 158.842 213.62 157.954C213.164 157.042 212.54 156.358 211.748 155.902C210.98 155.446 210.14 155.218 209.228 155.218C208.316 155.218 207.464 155.446 206.672 155.902C205.904 156.358 205.28 157.042 204.8 157.954C204.32 158.842 204.08 159.958 204.08 161.302C204.08 162.646 204.32 163.774 204.8 164.686C205.28 165.574 205.904 166.246 206.672 166.702C207.44 167.158 208.28 167.386 209.192 167.386Z" fill="#7048C6"/>
<path d="M264.164 157.295C264.504 157.486 264.504 157.975 264.164 158.166L241.745 170.769C241.412 170.956 241 170.716 241 170.333L241 145.128C241 144.745 241.412 144.504 241.745 144.692L264.164 157.295Z" stroke="#7048C6" stroke-width="3"/>
</g>
<path d="M305.886 110.955C317.923 147.552 316.234 187.263 301.144 222.503C286.054 257.741 258.623 286.034 224.096 301.984C189.57 317.934 150.363 320.428 113.96 308.991C77.5561 297.553 46.5001 272.983 26.7281 239.964C6.95577 206.945 -0.144014 167.793 6.78829 129.988C13.7205 92.183 34.1972 58.3812 64.2999 35.0338C94.4019 11.6869 132.021 0.427998 169.975 3.40109C207.929 6.37419 243.566 23.3719 270.079 51.1561" stroke="#7048C6" stroke-width="5" stroke-linecap="round"/>
</svg>
