<svg width="26" height="26" viewBox="0 0 26 26" fill="none" xmlns="http://www.w3.org/2000/svg">
<path id="Union" fill-rule="evenodd" clip-rule="evenodd" d="M4.69824 11.8553C4.69824 7.90257 7.90257 4.69824 11.8553 4.69824C15.808 4.69824 19.0124 7.90257 19.0124 11.8553C19.0124 13.7643 18.265 15.4987 17.0469 16.7819C16.9992 16.8215 16.9529 16.8636 16.9083 16.9083C16.8636 16.9529 16.8215 16.9992 16.7819 17.0469C15.4987 18.265 13.7643 19.0124 11.8553 19.0124C7.90257 19.0124 4.69824 15.808 4.69824 11.8553ZM18.2033 21.0317C16.4013 22.2806 14.2138 23.0124 11.8553 23.0124C5.69343 23.0124 0.698242 18.0172 0.698242 11.8553C0.698242 5.69343 5.69343 0.698242 11.8553 0.698242C18.0172 0.698242 23.0124 5.69343 23.0124 11.8553C23.0124 14.2138 22.2806 16.4013 21.0317 18.2033L24.7158 21.8874C25.4969 22.6685 25.4969 23.9348 24.7158 24.7158C23.9348 25.4969 22.6685 25.4969 21.8874 24.7158L18.2033 21.0317Z" fill="#9169E8"/>
</svg>
