<svg width="13" height="15" viewBox="0 0 13 15" fill="none" xmlns="http://www.w3.org/2000/svg">
<path d="M9.46694 1.33974L9.14153 0.82666H7.17231V5.44772L7.1656 9.96146C7.16895 9.995 7.17231 10.0319 7.17231 10.0654C7.17231 11.1955 6.25311 12.1177 5.11922 12.1177C3.98532 12.1177 3.06612 11.1989 3.06612 10.0654C3.06612 8.9353 3.98532 8.01311 5.11922 8.01311C5.35405 8.01311 5.58217 8.0567 5.79352 8.13048V5.87696C5.57546 5.84007 5.35069 5.81995 5.11922 5.81995C2.78097 5.8233 0.875488 7.72806 0.875488 10.0688C0.875488 12.4095 2.78097 14.3142 5.12257 14.3142C7.46417 14.3142 9.36966 12.4095 9.36966 10.0688V4.6999C10.2184 5.54832 11.3154 6.37662 12.5298 6.64154V4.33772C11.2114 3.75422 9.8997 2.03055 9.46694 1.33974Z" fill="#D1BD8F"/>
</svg>
