<svg width="14" height="13" viewBox="0 0 14 13" fill="none" xmlns="http://www.w3.org/2000/svg">
<path d="M0.0822754 10.6938C1.50829 10.7741 2.75527 10.4407 3.97139 9.55796C2.74293 9.34807 1.89103 8.78631 1.42804 7.62574C1.78608 7.57636 2.10092 7.66896 2.47131 7.5208C1.26136 6.98991 0.477362 6.19356 0.446496 4.81694C0.829234 4.8478 1.11938 5.10091 1.57619 5.06387C0.465018 3.97738 0.125488 2.79213 0.82306 1.35377C1.98362 2.68718 3.34173 3.59464 5.00232 4.0206C5.09492 4.04529 5.18134 4.06998 5.27394 4.0885C5.69989 4.18727 6.20609 4.39716 6.46537 4.36629C6.90984 4.31074 6.46537 3.79836 6.57649 3.13165C6.92836 1.05746 9.21244 0.112958 10.9039 1.32908C11.3978 1.68712 11.7867 1.68095 12.2744 1.46489C12.5275 1.35377 12.7867 1.24265 13.0892 1.11302C13.0213 1.70564 12.5645 2.03282 12.2003 2.47112C12.6139 2.56372 12.9472 2.44643 13.33 2.32296C13.2003 2.74892 12.8793 2.98967 12.5892 3.22425C12.2867 3.46501 12.1694 3.71811 12.1571 4.11319C11.9719 10.095 5.17517 14.7188 0.52675 11.0395C0.0761067 10.6815 0.5144 11.0395 0.0822754 10.6938Z" fill="#D1BD8F"/>
</svg>
